# xmcd
#
# Track frame offsets:
#	150
#	10500
#	23775
#	34807
#	42985
#	53850
#	66522
#	76320
#	89362
#	97730
#	109997
#	119707
#	129417
#	146767
#	164187
#	183567
#	196062
#	210745
#	221945
#	237530
#	248622
#	263015
#	280045
#	300355
#
# Disc length: 4193
#
# Revision: 2
# Processed by: cddbd v1.5.1PL0 Copyright (c) Steve Scherf et al.
# Submitted via: inCDius 1.1
# Normalized: r0:TDELIM( - ),TSWAP
#
DISCID=5c105f18
DTITLE=Various (Mercury) Artists - Hot Stuff Catalog Sampler
DYEAR=1900
DGENRE=
TTITLE0=Bob Wills - Bubbles in My Beer
TTITLE1=Hank Williams - Hey Good Lookin'
TTITLE2=Johnny Cash - Cry, Cry, Cry
TTITLE3=Jerry Lee Lewis - Great Balls of Fire
TTITLE4=Big Bopper - Chantilly Lace
TTITLE5=George Jones - White Lightning
TTITLE6=Conway Twitty - Hound Dog
TTITLE7=Ray Stevens - Ahab, the Arab
TTITLE8=Roger Miller - Dang Me
TTITLE9=Hank Williams, Jr. - Eleven Roses
TTITLE10=Johnny Rodriguez - Ridin' My Thumb to Mexico
TTITLE11=Tom T. Hall - I Love
TTITLE12=C.W. McCall - Convoy
TTITLE13=Delbert McClinton - "B" Movie Boxcar Blues
TTITLE14=Mac Davis - Texas in My Rearview Mirror
TTITLE15=Pure Prairie League - Let Me Love You Tonight
TTITLE16=Tom Jones - Darlin'
TTITLE17=Reba McEntire - Can't Even Get the Blues
TTITLE18=The Statler Brothers - Elizabeth
TTITLE19=Perkins/Orbison/Lewis/Cash - Waymore's Blues
TTITLE20=Wray Bros. Band - You Lay a Little Love on Me
TTITLE21=Johnny Paycheck - Old Violin
TTITLE22=The Kentucky Headhunters - My Daddy Was a Milkman
TTITLE23=Kathy Mattea - Come from the Heart
EXTD=
EXTT0=
EXTT1=
EXTT2=
EXTT3=
EXTT4=
EXTT5=
EXTT6=
EXTT7=
EXTT8=
EXTT9=
EXTT10=
EXTT11=
EXTT12=
EXTT13=
EXTT14=
EXTT15=
EXTT16=
EXTT17=
EXTT18=
EXTT19=
EXTT20=
EXTT21=
EXTT22=
EXTT23=
PLAYORDER=
